<svg width="300" height="300" viewBox="0 0 300 300" fill="none" xmlns="http://www.w3.org/2000/svg">
<path d="M250.395 97.4211C250.395 43.6179 205.417 0 149.934 0C94.4527 0 49.4751 43.6179 49.4751 97.4211V257.807C49.4751 266.469 56.7141 273.489 65.6461 273.489C74.5765 273.489 81.8171 266.469 81.8171 257.807V253.536C81.8171 245.324 91.0506 240.106 98.3121 244.328L98.5456 244.464C101.907 246.406 104.017 249.873 104.017 253.668V283.581C104.017 291.34 109.635 298.281 117.534 299.499C127.641 301.057 136.358 293.528 136.358 284.024V219.966C136.358 213.724 141.642 208.708 148.078 208.818L148.372 208.822C154.635 208.922 159.65 213.897 159.65 219.971V226.19C159.65 233.95 165.266 240.891 173.169 242.109C183.274 243.666 191.993 236.137 191.993 226.633V193.547C191.993 189.024 194.504 184.842 198.583 182.65L198.86 182.502C207.463 177.843 218.053 183.84 218.053 193.396V257.366C218.053 265.124 223.67 272.067 231.569 273.285C241.675 274.841 250.395 267.313 250.395 257.807V113.102C250.395 111.543 250.151 110.039 249.715 108.616C250.148 104.94 250.395 101.21 250.395 97.4211Z" fill="#F1F9FE"/>
<path d="M230.68 97.4074C230.68 140.647 194.534 175.698 149.947 175.698C105.358 175.698 69.2139 140.647 69.2139 97.4074C69.2139 54.1679 105.358 19.1163 149.947 19.1163C194.534 19.1163 230.68 54.1679 230.68 97.4074Z" fill="#CBE6F8"/>
<path d="M101.224 210.308C90.8843 210.308 82.4708 201.894 82.4708 191.552V94.78C82.4708 84.4385 90.8843 76.0254 101.224 76.0254H197.387C207.728 76.0254 216.142 84.4385 216.142 94.78V191.552C216.142 201.894 207.728 210.308 197.387 210.308H101.224Z" fill="white"/>
<path d="M197.413 72.9492H101.25C89.2186 72.9492 79.4311 82.7398 79.4311 94.7711V191.545C79.4311 203.576 89.2186 213.365 101.25 213.365H197.413C209.444 213.365 219.233 203.576 219.233 191.545V94.7711C219.233 82.7398 209.444 72.9492 197.413 72.9492ZM197.413 79.0834C206.077 79.0834 213.1 86.1067 213.1 94.7711V191.545C213.1 200.208 206.077 207.234 197.413 207.234H101.25C92.5866 207.234 85.5618 200.208 85.5618 191.545V94.7711C85.5618 86.1067 92.5866 79.0834 101.25 79.0834H197.413Z" fill="#276AB4"/>
<path d="M163.82 111.026L180.983 111.012L180.999 128.176L163.836 128.191L163.82 111.026ZM160.861 131.172L183.979 131.151L183.958 108.032L160.84 108.053L160.861 131.172Z" fill="#221E1F"/>
<path d="M167.615 114.779L177.408 114.77L177.417 124.564L167.623 124.572L167.615 114.779Z" fill="#221E1F"/>
<path d="M117.531 111.102L134.696 111.085L134.71 128.249L117.547 128.265L117.531 111.102ZM114.572 131.245L137.692 131.224L137.669 108.105L114.551 108.126L114.572 131.245Z" fill="#221E1F"/>
<path d="M121.326 114.78L131.12 114.771L131.129 124.565L121.334 124.574L121.326 114.78Z" fill="#221E1F"/>
<path d="M134.783 175.27L117.62 175.286L117.604 158.123L134.769 158.109L134.783 175.27ZM137.743 155.127L114.624 155.15L114.645 178.268L137.764 178.245L137.743 155.127Z" fill="#221E1F"/>
<path d="M131.166 171.586L121.372 171.595L121.362 161.802L131.158 161.792L131.166 171.586Z" fill="#221E1F"/>
<path d="M181.036 175.197L163.871 175.213L163.856 158.05L181.02 158.034L181.036 175.197ZM183.995 155.054L160.877 155.075L160.897 178.193L184.016 178.172L183.995 155.054Z" fill="#221E1F"/>
<path d="M177.455 171.586L167.661 171.596L167.651 161.802L177.445 161.792L177.455 171.586Z" fill="#221E1F"/>
<path d="M154.321 114.774L157.632 114.771L157.635 118.081L154.323 118.084L154.321 114.774Z" fill="#221E1F"/>
<path d="M147.699 115.216V114.812L147.693 108.328L151.003 108.325L151.01 114.809V115.213L151.013 118.119L147.702 118.122L147.699 115.216Z" fill="#221E1F"/>
<path d="M141.065 117.996L144.375 117.993L144.381 124.741L141.071 124.744L141.065 117.996Z" fill="#221E1F"/>
<path d="M141.101 134.842L144.411 134.839L144.415 138.149L141.103 138.152L141.101 134.842Z" fill="#221E1F"/>
<path d="M114.551 134.84L117.861 134.839L117.864 138.149L114.552 138.152L114.551 134.84Z" fill="#221E1F"/>
<path d="M121.197 141.462L117.886 141.466L117.883 138.156L121.002 138.152L120.999 134.842L124.309 134.839L124.312 138.149L121.193 138.152L121.197 141.462Z" fill="#221E1F"/>
<path d="M160.95 134.769L164.26 134.766L164.263 138.078L160.953 138.081L160.95 134.769Z" fill="#221E1F"/>
<path d="M167.596 141.389L164.285 141.392L164.282 138.082L167.401 138.079L167.397 134.769L170.709 134.766L170.712 138.076L167.594 138.079L167.596 141.389Z" fill="#221E1F"/>
<path d="M180.715 141.391L170.694 141.399L170.691 138.089L177.329 138.083L177.326 134.772L184.092 134.766L184.095 138.076L180.712 138.079L180.715 141.391Z" fill="#221E1F"/>
<path d="M174.094 148.113L170.711 148.117L167.593 148.12L167.596 151.43L164.285 151.433L164.282 148.123L167.401 148.12L167.397 144.809L170.708 144.806L177.473 144.8L177.476 148.11L184.115 148.105L184.118 151.416L174.097 151.424L174.094 148.113Z" fill="#221E1F"/>
<path d="M161.02 151.427L151.046 151.435H150.999L147.736 151.438L147.729 144.655L151.04 144.653L151.043 148.125L154.352 148.121L154.348 144.811L164.273 144.802L164.276 148.113L161.017 148.115L161.02 151.427Z" fill="#221E1F"/>
<path d="M141.101 128.25L144.411 128.247L144.415 131.559L141.104 131.562L141.101 128.25Z" fill="#221E1F"/>
<path d="M141.064 108.329L144.376 108.325L144.383 115.213L141.071 115.216L141.064 108.329Z" fill="#221E1F"/>
<path d="M157.673 164.883L154.361 164.886L154.358 161.576L157.67 161.572L157.673 164.883Z" fill="#221E1F"/>
<path d="M151.046 162.015L147.736 162.018L147.729 155.13L151.04 155.127L151.046 162.015Z" fill="#221E1F"/>
<path d="M144.455 171.52L147.768 171.517L147.762 164.798L151.072 164.795L151.085 178.234L148.206 178.235V178.266L144.424 178.269V178.206L141.149 178.21L141.146 174.898L144.421 174.895L144.418 171.549L141.143 171.552L141.138 164.805L144.448 164.801L144.455 171.52Z" fill="#221E1F"/>
<path d="M157.678 178.257L154.368 178.261L154.358 168.167L157.668 168.164L157.678 178.257Z" fill="#221E1F"/>
<path d="M144.418 162.014L141.107 162.018L141.101 155.128L144.411 155.127L144.418 162.014Z" fill="#221E1F"/>
<path d="M154.321 131.398L157.632 131.396L157.641 141.501L154.331 141.503L154.321 131.398Z" fill="#221E1F"/>
<path d="M154.317 128.211L151.01 128.214L151.021 141.501L147.711 141.505L147.693 121.296L151 121.292H151.003L154.31 121.289L154.317 128.211Z" fill="#221E1F"/>
<path d="M134.29 141.514L144.396 141.504L144.398 144.12V144.816L144.404 151.435L141.094 151.438L141.087 144.817L134.293 144.824L134.29 141.514Z" fill="#221E1F"/>
<path d="M121.474 144.834L121.477 148.141L124.338 148.139L124.335 144.831L127.453 144.827L127.45 141.471L124.332 141.472L124.329 138.162L130.968 138.157L130.965 134.845L137.729 134.839L137.732 138.15L134.35 138.154L134.353 141.464L130.76 141.467L130.764 144.824L127.645 144.827L127.648 148.136L134.765 148.13L134.768 151.44L114.557 151.459L114.554 148.151V148.147L114.551 144.841L121.474 144.834Z" fill="#221E1F"/>
<path d="M196.455 115.467C197.42 115.467 198.2 114.685 198.198 113.722L198.182 96.0787C198.182 95.1153 197.399 94.3344 196.436 94.3359L178.842 94.3518C177.879 94.3537 177.1 95.1347 177.1 96.0981C177.101 97.0615 177.882 97.8428 178.846 97.8409L194.695 97.8265L194.709 113.724C194.711 114.689 195.492 115.468 196.455 115.467Z" fill="#46C8F5"/>
<path d="M102.141 115.558C103.104 115.558 103.885 114.775 103.883 113.811L103.869 97.9145L119.718 97.8998C120.681 97.8982 121.462 97.1169 121.461 96.1535C121.461 95.1889 120.678 94.4092 119.715 94.4092L102.121 94.427C101.158 94.427 100.376 95.2083 100.378 96.1728L100.393 113.815C100.396 114.778 101.177 115.559 102.141 115.558Z" fill="#46C8F5"/>
<path d="M178.919 191.949L196.514 191.933C197.477 191.931 198.257 191.152 198.257 190.187L198.241 172.543C198.239 171.58 197.458 170.801 196.495 170.801C195.53 170.802 194.75 171.584 194.752 172.547L194.765 188.445L178.917 188.46C177.952 188.462 177.173 189.243 177.173 190.206C177.174 191.171 177.956 191.951 178.919 191.949Z" fill="#46C8F5"/>
<path d="M102.214 192.006L119.807 191.99C120.77 191.988 121.552 191.207 121.55 190.244C121.55 189.281 120.769 188.499 119.804 188.501L103.957 188.516L103.939 172.617C103.939 171.653 103.158 170.874 102.194 170.874C101.231 170.876 100.452 171.657 100.452 172.62L100.468 190.263C100.468 191.227 101.25 192.006 102.214 192.006Z" fill="#46C8F5"/>
<path d="M224.746 144.56H75.1376C73.4443 144.56 72.0703 143.187 72.0703 141.493C72.0703 139.8 73.4443 138.428 75.1376 138.428H149.942H224.746C226.439 138.428 227.811 139.8 227.811 141.493C227.811 143.187 226.439 144.56 224.746 144.56Z" fill="#ED1F27"/>
<path d="M90.0623 39.6033L86.4975 36.0388L90.0623 32.474C90.7887 31.7476 90.7887 30.5685 90.0623 29.8417C89.3359 29.1152 88.1567 29.1152 87.4299 29.8417L83.8655 33.4065L80.3007 29.8417C79.5743 29.1152 78.3967 29.1152 77.6703 29.8417C76.9419 30.5685 76.9419 31.7476 77.6703 32.474L81.2351 36.0388L77.6703 39.6033C76.9419 40.3301 76.9419 41.5072 77.6703 42.2341C78.3967 42.9605 79.5743 42.9605 80.3007 42.2341L83.8655 38.6708L87.4299 42.2341C88.1567 42.9605 89.3359 42.9605 90.0623 42.2341C90.7887 41.5072 90.7887 40.3301 90.0623 39.6033Z" fill="#91288E"/>
<path d="M165.371 58.6831L162.679 55.9932L165.371 53.3013C165.918 52.7539 165.918 51.8628 165.371 51.3154C164.821 50.766 163.932 50.766 163.383 51.3154L160.691 54.0053L158.001 51.3154C157.454 50.766 156.563 50.766 156.015 51.3154C155.466 51.8628 155.466 52.7539 156.015 53.3013L158.705 55.9932L156.015 58.6831C155.466 59.2325 155.466 60.1217 156.015 60.671C156.563 61.2184 157.454 61.2184 158.001 60.671L160.691 57.9791L163.383 60.671C163.932 61.2184 164.821 61.2184 165.371 60.671C165.918 60.1217 165.918 59.2325 165.371 58.6831Z" fill="#ED1F27"/>
<path d="M201.06 49.1883L197.924 47.5839L199.528 44.4478C199.855 43.808 199.602 43.0236 198.962 42.6965C198.323 42.3698 197.539 42.6227 197.212 43.2621L195.607 46.3982L192.469 44.7923C191.83 44.4652 191.047 44.7184 190.72 45.3578C190.391 45.9973 190.646 46.7817 191.285 47.1088L194.422 48.7131L192.816 51.8511C192.489 52.4906 192.742 53.275 193.381 53.602C194.021 53.9291 194.805 53.6759 195.132 53.0365L196.738 49.8988L199.874 51.5048C200.514 51.8318 201.297 51.5786 201.625 50.9392C201.952 50.2997 201.7 49.5169 201.06 49.1883Z" fill="#F9CB3F"/>
<path d="M147.98 26.6567C145.983 27.3008 144.883 29.4514 145.527 31.452C146.173 33.4492 148.323 34.5495 150.322 33.9054C152.322 33.2594 153.422 31.1087 152.776 29.1096C152.131 27.1109 149.98 26.0107 147.98 26.6567ZM151.188 36.5826C147.713 37.7037 143.973 35.7901 142.85 32.3153C141.729 28.841 143.642 25.1006 147.117 23.9779C150.592 22.8564 154.332 24.7701 155.455 28.2448C156.576 31.7196 154.662 35.4595 151.188 36.5826Z" fill="#29ABE2"/>
<path d="M103.219 39.4055C101.794 39.4055 100.636 40.5638 100.636 41.986C100.636 43.4099 101.794 44.5681 103.219 44.5681C104.641 44.5681 105.799 43.4099 105.799 41.986C105.799 40.5638 104.641 39.4055 103.219 39.4055ZM103.219 46.4737C100.744 46.4737 98.7305 44.4603 98.7305 41.986C98.7305 39.5118 100.744 37.5 103.219 37.5C105.691 37.5 107.705 39.5118 107.705 41.986C107.705 44.4603 105.691 46.4737 103.219 46.4737Z" fill="#35BA8F"/>
<path d="M68.9145 60.6006C66.8141 60.6006 65.105 62.3098 65.105 64.4101C65.105 66.5105 66.8141 68.2197 68.9145 68.2197C71.0153 68.2197 72.7244 66.5105 72.7244 64.4101C72.7244 62.3098 71.0153 60.6006 68.9145 60.6006ZM68.9145 71.0322C65.2646 71.0322 62.2925 68.062 62.2925 64.4101C62.2925 60.7599 65.2646 57.7881 68.9145 57.7881C72.5663 57.7881 75.5369 60.7599 75.5369 64.4101C75.5369 68.062 72.5663 71.0322 68.9145 71.0322Z" fill="#F9CB3F"/>
</svg>
