<svg width="78" height="100" viewBox="0 0 78 100" fill="none" xmlns="http://www.w3.org/2000/svg">
<path d="M2.37649 80.5369C-1.22213 84.8256 -0.694241 91.3278 4.23119 93.9891C8.44808 96.2676 12.9863 97.9364 17.7111 98.9299C25.7577 100.622 34.0974 100.303 41.9915 98.0025C49.8855 95.7016 57.0903 91.4893 62.9676 85.7389C68.8449 79.9884 73.2133 72.8773 75.6859 65.0353C78.1584 57.1933 78.6588 48.8626 77.1427 40.781C75.6267 32.6994 72.1409 25.1165 66.9942 18.7038C61.8475 12.2912 55.1988 7.2468 47.6369 4.01749C43.1967 2.12127 38.522 0.885239 33.7609 0.332981C28.1997 -0.312069 24.0378 4.71144 24.5257 10.2886C25.0136 15.8657 30.043 19.8203 35.4622 21.2257C36.8957 21.5974 38.3039 22.0769 39.6746 22.6623C44.1703 24.5822 48.1232 27.5812 51.183 31.3937C54.2428 35.2061 56.3152 39.7144 57.2165 44.5191C58.1179 49.3238 57.8204 54.2766 56.3504 58.9388C54.8804 63.6011 52.2833 67.8288 48.7891 71.2476C45.2949 74.6664 41.0115 77.1707 36.3183 78.5386C31.625 79.9066 26.6669 80.096 21.883 79.09C20.4245 78.7833 18.9959 78.3684 17.6084 77.8507C12.3632 75.8936 5.97511 76.2482 2.37649 80.5369Z" fill="url(#paint0_linear_1_1005)"/>
<defs>
<linearGradient id="paint0_linear_1_1005" x1="28" y1="3.5" x2="31" y2="104" gradientUnits="userSpaceOnUse">
<stop stop-color="#80AEFE" stop-opacity="0"/>
<stop offset="0.412558" stop-color="#3B92FE" stop-opacity="0.537425"/>
<stop offset="1" stop-color="#007AFE"/>
</linearGradient>
</defs>
</svg>
