<svg width="10" height="16" viewBox="0 0 10 16" fill="none" xmlns="http://www.w3.org/2000/svg">
<path d="M0.775957 15.8536C0.598446 16.0488 0.310644 16.0488 0.133133 15.8536C-0.0443778 15.6583 -0.0443778 15.3417 0.133133 15.1464L4.67859 10.1464C4.8561 9.95118 5.1439 9.95118 5.32141 10.1464L9.86687 15.1464C10.0444 15.3417 10.0444 15.6583 9.86687 15.8536C9.68936 16.0488 9.40155 16.0488 9.22404 15.8536L5 11.2071L0.775957 15.8536Z" fill="#8C92A4"/>
<path d="M9.22404 0.146447C9.40155 -0.0488155 9.68936 -0.0488155 9.86687 0.146447C10.0444 0.341709 10.0444 0.658291 9.86687 0.853553L5.32141 5.85355C5.1439 6.04882 4.8561 6.04882 4.67859 5.85355L0.133133 0.853553C-0.0443778 0.658291 -0.0443778 0.341709 0.133133 0.146447C0.310644 -0.0488155 0.598446 -0.0488155 0.775957 0.146447L5 4.79289L9.22404 0.146447Z" fill="#8C92A4"/>
</svg>
