<svg width="96" height="96" viewBox="0 0 96 96" fill="none" xmlns="http://www.w3.org/2000/svg">
<path d="M62 44C65.3137 44 68 41.3137 68 38C68 34.6863 65.3137 32 62 32C58.6863 32 56 34.6863 56 38C56 41.3137 58.6863 44 62 44Z" fill="#D40055"/>
<path d="M34 44C37.3137 44 40 41.3137 40 38C40 34.6863 37.3137 32 34 32C30.6863 32 28 34.6863 28 38C28 41.3137 30.6863 44 34 44Z" fill="#D40055"/>
<path fill-rule="evenodd" clip-rule="evenodd" d="M47.96 8C25.88 8 8 25.92 8 48C8 70.08 25.88 88 47.96 88C70.08 88 88 70.08 88 48C88 25.92 70.08 8 47.96 8ZM48 80C30.32 80 16 65.68 16 48C16 30.32 30.32 16 48 16C65.68 16 80 30.32 80 48C80 65.68 65.68 80 48 80ZM27.52 70C30.72 61.8 38.68 56 48 56C57.32 56 65.28 61.8 68.48 70H61.8C59 65.24 53.92 62 48 62C42.08 62 36.96 65.24 34.2 70H27.52Z" fill="#D40055"/>
</svg>
