<svg width="21" height="21" viewBox="0 0 21 21" fill="none" xmlns="http://www.w3.org/2000/svg">
<path d="M10.5 0C9.12112 0 7.75574 0.27159 6.48182 0.799265C5.20791 1.32694 4.05039 2.10036 3.07538 3.07538C1.10625 5.04451 0 7.71523 0 10.5V21H10.5C13.2848 21 15.9555 19.8938 17.9246 17.9246C19.8938 15.9555 21 13.2848 21 10.5C21 7.71523 19.8938 5.04451 17.9246 3.07538C15.9555 1.10625 13.2848 0 10.5 0ZM11.4881 16.4421C11.4881 16.4729 11.4821 16.5034 11.4703 16.5318C11.4585 16.5603 11.4412 16.5861 11.4195 16.6079C11.3977 16.6297 11.3718 16.647 11.3434 16.6587C11.315 16.6705 11.2845 16.6766 11.2537 16.6766H9.74611C9.68393 16.6766 9.6243 16.6519 9.58033 16.6079C9.53636 16.5639 9.51166 16.5043 9.51166 16.4421V9.00202C9.51166 8.93984 9.53636 8.8802 9.58033 8.83623C9.6243 8.79226 9.68393 8.76756 9.74611 8.76756H11.2537C11.2845 8.76756 11.315 8.77363 11.3434 8.78541C11.3718 8.79719 11.3977 8.81446 11.4195 8.83623C11.4412 8.85801 11.4585 8.88385 11.4703 8.9123C11.4821 8.94074 11.4881 8.97123 11.4881 9.00202L11.4881 16.4421ZM11.4881 6.44059C11.4881 6.47138 11.4821 6.50187 11.4703 6.53031C11.4585 6.55876 11.4412 6.5846 11.4195 6.60637C11.3977 6.62814 11.3718 6.64541 11.3434 6.65719C11.3149 6.66897 11.2845 6.67504 11.2537 6.67504H9.74611C9.68393 6.67504 9.6243 6.65034 9.58033 6.60637C9.53636 6.5624 9.51166 6.50277 9.51166 6.44059V4.55798C9.51166 4.49579 9.53636 4.43616 9.58033 4.39219C9.6243 4.34822 9.68393 4.32352 9.74611 4.32352H11.2537C11.2845 4.32352 11.315 4.32958 11.3434 4.34137C11.3718 4.35315 11.3977 4.37042 11.4195 4.39219C11.4412 4.41396 11.4585 4.43981 11.4703 4.46825C11.4821 4.4967 11.4881 4.52719 11.4881 4.55798L11.4881 6.44059Z" fill="white"/>
</svg>
